<svg width="50" height="50" viewBox="0 0 50 50" fill="none" xmlns="http://www.w3.org/2000/svg">
<path d="M31.8084 22.0017L30.6892 21.6474C30.6366 21.6307 30.5804 21.6599 30.5637 21.7125L30.3222 22.4752C30.3056 22.5279 30.3347 22.5841 30.3874 22.6007L32.9696 23.4183C33.0222 23.4349 33.0784 23.4058 33.0951 23.3531L33.9137 20.7683C33.9303 20.7157 33.9012 20.6595 33.8485 20.6428L33.0858 20.4013C33.0332 20.3846 32.977 20.4138 32.9603 20.4665L32.6469 21.4564C31.84 20.2036 30.732 19.1668 29.4187 18.4443C27.8592 17.5863 26.0802 17.21 24.3067 17.363C22.5333 17.5161 20.845 18.1916 19.4555 19.3041C18.066 20.4166 17.0375 21.9162 16.5003 23.6132C15.963 25.3102 15.941 27.1284 16.4371 28.8379C16.9331 30.5474 17.925 32.0714 19.2872 33.2172C20.6495 34.363 22.3209 35.0792 24.0901 35.275C25.8593 35.4709 27.6469 35.1378 29.2268 34.3177L28.766 33.43C27.3617 34.1589 25.7727 34.455 24.2001 34.2809C22.6276 34.1068 21.1419 33.4702 19.9311 32.4518C18.7202 31.4333 17.8386 30.0787 17.3977 28.5592C16.9567 27.0396 16.9763 25.4235 17.4538 23.9151C17.9314 22.4067 18.8455 21.0737 20.0807 20.0849C21.3158 19.096 22.8164 18.4956 24.3927 18.3596C25.9691 18.2235 27.5503 18.558 28.9366 19.3207C30.1052 19.9636 31.091 20.8865 31.8084 22.0017Z" fill="white"/>
</svg>
