<svg width="51" height="51" viewBox="0 0 51 51" fill="none" xmlns="http://www.w3.org/2000/svg">
<path fill-rule="evenodd" clip-rule="evenodd" d="M19.0471 3.89358C21.2377 2.27884 23.6981 1.67503 24.7895 1.47549V24.8199C24.5197 24.7368 24.1718 24.6204 23.7684 24.4651C22.7753 24.0827 21.454 23.4672 20.1358 22.5354C17.5075 20.6774 14.9049 17.5773 14.9049 12.5282C14.9049 8.16236 16.848 5.51458 19.0471 3.89358ZM23.3519 31.3957C24.1711 30.2368 24.758 29.08 25.1648 28.1221V49.6945C25.1648 50.2752 25.6712 50.7707 26.2957 50.6589C27.4293 50.4561 30.1013 49.8218 32.5005 48.0533C34.922 46.2683 37.0493 43.3364 37.0493 38.6137C37.0493 33.1535 34.2097 29.7792 31.3957 27.79C30.0447 26.835 28.6967 26.1958 27.6631 25.7895H49.6945C50.2752 25.7895 50.7707 25.2831 50.6589 24.6585C50.4561 23.5249 49.8218 20.853 48.0533 18.4537C46.2683 16.0322 43.3364 13.9049 38.6137 13.9049C33.1535 13.9049 29.7792 16.7445 27.79 19.5586C26.835 20.9095 26.1958 22.2576 25.7895 23.2912V1.44741C25.7895 0.866745 25.2831 0.371215 24.6585 0.482955C23.5249 0.685755 20.853 1.3201 18.4537 3.08863C16.0322 4.8736 13.9049 7.80549 13.9049 12.5282C13.9049 17.9884 16.7445 21.3627 19.5586 23.3519C20.7174 24.1711 21.8742 24.758 22.8321 25.1648H1.44741C0.866745 25.1648 0.371215 25.6712 0.482955 26.2957C0.685755 27.4293 1.3201 30.1013 3.08863 32.5005C4.8736 34.922 7.80549 37.0493 12.5282 37.0493C17.9884 37.0493 21.3627 34.2097 23.3519 31.3957ZM3.89358 31.9072C2.27884 29.7166 1.67503 27.2561 1.47549 26.1648H24.8199C24.7368 26.4346 24.6204 26.7825 24.4651 27.1858C24.0827 28.1789 23.4672 29.5002 22.5354 30.8184C20.6774 33.4467 17.5773 36.0493 12.5282 36.0493C8.16236 36.0493 5.51458 34.1063 3.89358 31.9072ZM26.1648 49.6664C27.2561 49.4669 29.7166 48.8631 31.9072 47.2483C34.1063 45.6273 36.0493 42.9795 36.0493 38.6137C36.0493 33.5646 33.4467 30.4645 30.8184 28.6065C29.5002 27.6747 28.1789 27.0592 27.1858 26.6768C26.7825 26.5215 26.4346 26.4051 26.1648 26.322V49.6664ZM47.2483 19.0471C48.8631 21.2377 49.4669 23.6981 49.6664 24.7895H26.322C26.4051 24.5197 26.5215 24.1718 26.6768 23.7684C27.0592 22.7753 27.6747 21.454 28.6065 20.1358C30.4645 17.5075 33.5646 14.9049 38.6137 14.9049C42.9795 14.9049 45.6273 16.848 47.2483 19.0471Z" fill="white"/>
</svg>
