<svg width="50" height="50" viewBox="0 0 50 50" fill="none" xmlns="http://www.w3.org/2000/svg">
<path d="M18.1 34C18.0448 34 18 33.9552 18 33.9V22.9804C18 22.4389 18.4389 22 18.9804 22C18.9912 22 19 22.0088 19 22.0196V33.9C19 33.9552 18.9552 34 18.9 34H18.1Z" fill="white"/>
<path d="M34.8599 25.8656C34.673 26.0448 34.37 26.0448 34.1832 25.8656L24.7098 16.7831C24.5229 16.604 24.5229 16.3135 24.7098 16.1344C24.8966 15.9552 25.1996 15.9552 25.3864 16.1344L34.8599 25.2169C35.0467 25.396 35.0467 25.6865 34.8599 25.8656Z" fill="white"/>
<path d="M15.1401 25.8656C14.9533 25.6865 14.9533 25.396 15.1401 25.2169L24.6136 16.1344C24.8004 15.9552 25.1034 15.9552 25.2902 16.1344C25.4771 16.3135 25.4771 16.604 25.2902 16.7831L15.8168 25.8656C15.63 26.0448 15.327 26.0448 15.1401 25.8656Z" fill="white"/>
<path d="M31.1 34C31.0448 34 31 33.9552 31 33.9V22.0196C31 22.0088 31.0088 22 31.0196 22C31.5611 22 32 22.4389 32 22.9804V33.9C32 33.9552 31.9552 34 31.9 34H31.1Z" fill="white"/>
</svg>
