<svg width="50" height="50" viewBox="0 0 50 50" fill="none" xmlns="http://www.w3.org/2000/svg">
<path fill-rule="evenodd" clip-rule="evenodd" d="M29 21C29 23.2091 27.2091 25 25 25C22.7909 25 21 23.2091 21 21C21 18.7909 22.7909 17 25 17C27.2091 17 29 18.7909 29 21ZM28 21C28 22.6569 26.6569 24 25 24C23.3431 24 22 22.6569 22 21C22 19.3431 23.3431 18 25 18C26.6569 18 28 19.3431 28 21Z" fill="white"/>
<path d="M19.2724 29.2724C17.7534 30.7915 16.9 32.8517 16.9 35H16C16 34.6643 16.0188 34.3305 16.0557 34C16.2814 31.981 17.1856 30.0865 18.636 28.636C20.3239 26.9482 22.6131 26 25 26C27.3869 26 29.6761 26.9482 31.364 28.636C32.8144 30.0865 33.7186 31.981 33.9443 34C33.9812 34.3305 34 34.6643 34 35H33.1C33.1 32.8517 32.2466 30.7915 30.7276 29.2724C29.2085 27.7534 27.1483 26.9 25 26.9C22.8517 26.9 20.7915 27.7534 19.2724 29.2724Z" fill="white"/>
</svg>
